<?xml version="1.0" encoding="utf-8"?>
<!-- Generator: Adobe Illustrator 24.2.1, SVG Export Plug-In . SVG Version: 6.00 Build 0)  -->
<svg version="1.1" id="Calque_1" xmlns="http://www.w3.org/2000/svg" xmlns:xlink="http://www.w3.org/1999/xlink" x="0px" y="0px"
	 viewBox="0 0 626.43 491.94" style="enable-background:new 0 0 626.43 491.94;" xml:space="preserve">
<style type="text/css">
	.st0{fill:#FFFFFF;}
</style>
<path d="M615.09,491.94H11.34C5.08,491.94,0,486.87,0,480.6V11.34C0,5.08,5.08,0,11.34,0h603.75c6.26,0,11.34,5.08,11.34,11.34
	V480.6C626.43,486.87,621.35,491.94,615.09,491.94z"/>
<g>
	<g>
		<path class="st0" d="M73.66,216.34l28.28-10.76v19.67l-28.28,8.7V216.34z M83.45,220.87l7.25-2.52v95.35l-7.25-0.15V220.87z"/>
		<path class="st0" d="M106.77,203.74l8.68-3.3v113.78l-8.68-0.18V203.74z M109.84,202.57l30.49-11.6v22.47l-30.49,9.38V202.57z
			 M109.84,248.59l26.29-5.65v22.17l-26.29,3.73V248.59z M109.84,293.85l30.49-1.59v22.47l-30.49-0.64V293.85z"/>
		<path class="st0" d="M168.43,180.27l8.2-3.12l29.13,138.95l-16.04-0.33l-17.24-93.7l-15.65,93.01l-12.18-0.25L168.43,180.27z
			 M155.63,270.65l36.24-4.22v26.23l-36.24,1.58V270.65z"/>
		<path class="st0" d="M280.39,137.66l31.6-12.03v192.67l-22.25-0.46V175.17l0.85,7.85l-22.61,114.87l-17.94,0.43l-18.87-96.86
			l0.65-9.45v124.62l-15.56-0.32V162.06l22.98-8.74l19.58,108.03L280.39,137.66z"/>
	</g>
</g>
<g>
	<path class="st0" d="M313.99,125.63l29.55,11.25l40.73,141.61l-1.65,2.83V151.77l17.32,6.6v158.17l-22.57,0.46l-42.01-138.13
		l2.05-2.7v141.65l-23.42,0.48V125.63z"/>
	<path class="st0" d="M440.61,173.86l8.65,3.29l25,137.95l-12.79,0.27l-16.47-95.4l-18.19,96.12l-16.97,0.35L440.61,173.86z
		 M425.25,265.5l38.05,4.43v24.12l-38.05-1.66V265.5z"/>
	<path class="st0" d="M514.21,201.9l11.07,4.22v107.94l-7.54,0.16v-86.16l0.31,4.97l-8.91,68.62l-8.24-0.2l-10.08-74.2l0.37-6.93
		v94.44l-9.61,0.2V189.47l13.74,5.23l9.75,81.93L514.21,201.9z"/>
	<path class="st0" d="M534.39,209.58l7.32,2.79v101.34l-7.32,0.15V209.58z M537.08,210.61l21.58,8.22v17.16l-21.58-6.65V210.61z
		 M537.08,253.19l19.07,4.1v17.35l-19.07-2.71V253.19z M537.08,295.07l21.58,1.13v17.16l-21.58,0.45V295.07z"/>
</g>
</svg>
